<svg width="48" height="64" viewBox="0 0 48 64" fill="none" xmlns="http://www.w3.org/2000/svg">
<g id="Frame" clip-path="url(#clip0_0_65)">
<g id="Group-1">
<g id="Vector">
<path fill-rule="evenodd" clip-rule="evenodd" d="M47.9924 57.0812C40.2129 55.8296 32.2541 55.1786 24.1565 55.1786C16.0578 55.1786 8.09897 55.8296 0.319427 57.0812C8.15517 56.1992 16.1065 55.7474 24.1565 55.7474C32.2054 55.7474 40.1567 56.1992 47.9924 57.0812Z" fill="white"/>
<path d="M4.16106 46.2016H5.10683L7.93628 52.1028H6.97475L6.58854 51.2551H4.79946C4.53151 51.2551 4.2924 51.2733 4.08225 51.3098C3.87733 51.3458 3.70131 51.3924 3.55418 51.4496C3.40707 51.5069 3.28884 51.5687 3.19952 51.6361C3.1102 51.7035 3.04977 51.7684 3.01825 51.8307L2.8685 52.1028H1.93848L4.48419 46.9171L4.16106 46.2016ZM6.20238 50.4002L4.91768 47.9513L3.61724 50.7266C3.72232 50.6384 3.89572 50.5634 4.13742 50.5011C4.3791 50.4337 4.70486 50.4002 5.11473 50.4002H6.20238Z" fill="white"/>
<path d="M9.03612 52.1028V46.3029H9.89519V51.2551H13.1581V52.1028H9.03612Z" fill="white"/>
<path d="M14.1852 52.1028V46.3029H15.0444V51.2551H18.3073V52.1028H14.1852Z" fill="white"/>
<path d="M19.3344 52.1028V46.3029H20.1777V52.1028H19.3344Z" fill="white"/>
<path d="M23.4261 46.2016H24.3718L27.2013 52.1028H26.2397L25.8535 51.2551H24.0645C23.7965 51.2551 23.5574 51.2733 23.3473 51.3098C23.1423 51.3458 22.9663 51.3924 22.8192 51.4496C22.6721 51.5069 22.5539 51.5687 22.4645 51.6361C22.3752 51.7035 22.3148 51.7684 22.2832 51.8307L22.1335 52.1028H21.2035L23.7492 46.9171L23.4261 46.2016ZM25.4674 50.4002L24.1827 47.9513L22.8823 50.7266C22.9873 50.6384 23.1607 50.5634 23.4024 50.5011C23.6441 50.4337 23.9699 50.4002 24.3797 50.4002H25.4674Z" fill="white"/>
<path d="M27.7889 46.3029H28.9002L32.6754 50.7342V46.3029H33.5424V52.1028H32.6912L29.3179 48.1144V52.1028H28.4745V47.1193L27.7889 46.3029Z" fill="white"/>
<path d="M39.759 47.6868C39.5383 47.4689 39.2808 47.2981 38.9866 47.1735C38.6923 47.0493 38.3771 46.987 38.0408 46.987C37.715 46.987 37.4103 47.0413 37.1265 47.1502C36.8428 47.2591 36.5959 47.4147 36.3857 47.6169C36.1808 47.8139 36.0179 48.0496 35.897 48.3242C35.7814 48.5938 35.7237 48.8918 35.7237 49.2185C35.7237 49.5292 35.7867 49.8196 35.9128 50.0891C36.0389 50.3536 36.2096 50.5816 36.4251 50.7732C36.6405 50.9652 36.8875 51.1152 37.1659 51.2242C37.4444 51.3331 37.7387 51.3873 38.0487 51.3873C38.4323 51.3873 38.7843 51.3072 39.1048 51.1466C39.4253 50.9805 39.6959 50.7575 39.9166 50.4778L40.4446 51.1852C40.1451 51.512 39.7879 51.7684 39.3728 51.9549C38.9629 52.1418 38.519 52.235 38.0408 52.235C37.5942 52.235 37.1791 52.1545 36.7955 51.9939C36.412 51.8332 36.0783 51.6128 35.7946 51.3331C35.5108 51.0529 35.2875 50.724 35.1246 50.3455C34.9618 49.962 34.8803 49.5525 34.8803 49.1172C34.8803 48.6921 34.9644 48.2984 35.1325 47.9356C35.3059 47.5677 35.5371 47.2515 35.8261 46.987C36.1204 46.7175 36.4592 46.5077 36.8428 46.3572C37.2264 46.2072 37.6283 46.1317 38.0487 46.1317C38.4953 46.1317 38.9104 46.2148 39.294 46.3805C39.6828 46.5411 40.0217 46.7641 40.3107 47.0493L39.759 47.6868Z" fill="white"/>
<path d="M42.5679 51.2551H46.1934V52.1028H41.7089V46.3029H45.8468V47.1583H42.5679V48.9151C42.7468 48.8117 42.9277 48.7494 43.1117 48.7286C43.2956 48.7027 43.485 48.6896 43.6792 48.6896H44.9641V49.5525H43.6792C43.4901 49.5525 43.3011 49.5682 43.1117 49.5992C42.9277 49.625 42.7468 49.6848 42.5679 49.778V51.2551Z" fill="white"/>
<path d="M15.7418 60.6398C15.5806 60.4787 15.3926 60.3524 15.1777 60.2605C14.9627 60.1689 14.7324 60.1227 14.4868 60.1227C14.2489 60.1227 14.0263 60.163 13.819 60.2435C13.6118 60.3236 13.4314 60.4385 13.2779 60.5881C13.1283 60.7335 13.0093 60.9077 12.921 61.1107C12.8366 61.3099 12.7944 61.5299 12.7944 61.7715C12.7944 62.0012 12.8404 62.2156 12.9325 62.4144C13.0246 62.6098 13.1493 62.7785 13.3067 62.9201C13.4641 63.0616 13.6445 63.1727 13.8478 63.2532C14.0512 63.3337 14.2662 63.374 14.4926 63.374C14.7113 63.374 14.9167 63.3375 15.1086 63.2646C15.3005 63.1922 15.4713 63.0904 15.6209 62.9603V62.1792H15.0683L14.7977 61.5587H16.2427V63.2244C16.0239 63.466 15.7629 63.6554 15.4598 63.7932C15.1604 63.9309 14.8361 64 14.4868 64C14.1606 64 13.8574 63.9407 13.5773 63.822C13.2971 63.7033 13.0534 63.5406 12.8462 63.3337C12.6389 63.1269 12.4758 62.8836 12.3568 62.6043C12.2379 62.3207 12.1784 62.0181 12.1784 61.6964C12.1784 61.3828 12.2398 61.0916 12.3626 60.8233C12.4892 60.5516 12.6581 60.3181 12.8692 60.1227C13.0841 59.9235 13.3317 59.7684 13.6118 59.6573C13.892 59.5463 14.1856 59.4908 14.4926 59.4908C14.8188 59.4908 15.122 59.5522 15.4022 59.6747C15.6862 59.7934 15.9337 59.9583 16.1448 60.1689L15.7418 60.6398Z" fill="white"/>
<path d="M17.9341 61.668C18.0646 61.5913 18.197 61.5455 18.3313 61.5299C18.4657 61.5108 18.6038 61.5015 18.7458 61.5015H19.5632C19.782 61.5015 19.9585 61.4497 20.0929 61.3463C20.2272 61.2429 20.2944 61.0763 20.2944 60.8466C20.2944 60.7356 20.2752 60.6415 20.2368 60.5652C20.1984 60.4885 20.1466 60.427 20.0813 60.3812C20.0161 60.3312 19.9394 60.2969 19.8511 60.2778C19.7628 60.2549 19.6669 60.2435 19.5632 60.2435H17.9341V61.668ZM19.2467 62.1275H18.7458C18.6076 62.1275 18.4695 62.1389 18.3313 62.1618C18.197 62.1809 18.0646 62.225 17.9341 62.294V63.9025H17.3066V59.6171H19.5632C19.759 59.6171 19.9394 59.6459 20.1044 59.7035C20.2694 59.7569 20.4114 59.8375 20.5304 59.9447C20.6532 60.0519 20.7472 60.1842 20.8125 60.341C20.8815 60.4982 20.9161 60.6779 20.9161 60.881C20.9161 61.2065 20.8278 61.4726 20.6513 61.6795C20.4786 61.8863 20.2368 62.0279 19.9259 62.1046L20.2598 62.7878C20.3289 62.8874 20.3884 62.9679 20.4383 63.0294C20.4882 63.0904 20.5362 63.1404 20.5822 63.1786C20.6282 63.2129 20.6762 63.2379 20.7261 63.2532C20.776 63.2646 20.8355 63.2706 20.9046 63.2706L21.1061 63.2646V63.9025C20.9832 63.9025 20.8585 63.8983 20.7319 63.8907C20.609 63.883 20.4901 63.8584 20.375 63.8161C20.2598 63.7741 20.1505 63.7071 20.0468 63.6152C19.9432 63.5232 19.8511 63.3931 19.7705 63.2244L19.2467 62.1275Z" fill="white"/>
<path d="M25.8545 61.7312C25.8545 61.4976 25.8084 61.2832 25.7163 61.0878C25.6281 60.8886 25.5052 60.7182 25.3479 60.5766C25.1944 60.4308 25.0159 60.3198 24.8125 60.2435C24.6091 60.163 24.3923 60.1227 24.162 60.1227C23.9241 60.1227 23.7014 60.163 23.4942 60.2435C23.287 60.3236 23.1066 60.4385 22.9531 60.5881C22.8034 60.7335 22.6844 60.9077 22.5962 61.1107C22.5117 61.3099 22.4695 61.5299 22.4695 61.7714C22.4695 62.0012 22.5156 62.2156 22.6077 62.4144C22.6998 62.6098 22.8245 62.7785 22.9819 62.9201C23.1392 63.0616 23.3196 63.1727 23.523 63.2532C23.7264 63.3337 23.9413 63.374 24.1678 63.374C24.398 63.374 24.6148 63.3316 24.8183 63.2477C25.0255 63.1633 25.204 63.0485 25.3537 62.9027C25.5072 62.7535 25.6281 62.5793 25.7163 62.3801C25.8084 62.1809 25.8545 61.9647 25.8545 61.7312ZM26.4762 61.7655C26.4762 62.0834 26.4129 62.3784 26.2862 62.6501C26.1634 62.9222 25.9965 63.1574 25.7854 63.3566C25.5743 63.5558 25.3287 63.7126 25.0485 63.8275C24.7684 63.9424 24.4729 64 24.162 64C23.8358 64 23.5326 63.9407 23.2524 63.822C22.9723 63.7033 22.7286 63.5406 22.5213 63.3337C22.3141 63.1269 22.151 62.8836 22.032 62.6043C21.913 62.3207 21.8535 62.0181 21.8535 61.6964C21.8535 61.3828 21.9149 61.0916 22.0377 60.8233C22.1644 60.5516 22.3333 60.3181 22.5443 60.1227C22.7593 59.9235 23.0068 59.7684 23.287 59.6573C23.5671 59.5463 23.8607 59.4908 24.1678 59.4908C24.4863 59.4908 24.7856 59.5501 25.0658 59.6688C25.346 59.7836 25.5897 59.9447 25.7969 60.1515C26.008 60.3545 26.173 60.5936 26.292 60.8695C26.4148 61.145 26.4762 61.4438 26.4762 61.7655Z" fill="white"/>
<path d="M29.325 64C28.7109 64 28.235 63.847 27.8973 63.5406C27.5634 63.2341 27.3964 62.7993 27.3964 62.2364V59.6171H28.0182V62.2364C28.0182 62.6081 28.1314 62.8912 28.3578 63.0866C28.5842 63.2782 28.9066 63.374 29.325 63.374C29.7433 63.374 30.0656 63.2782 30.2921 63.0866C30.5185 62.8912 30.6317 62.6081 30.6317 62.2364V59.6171H31.2535V62.2364C31.2535 62.7993 31.0846 63.2341 30.7469 63.5406C30.413 63.847 29.939 64 29.325 64Z" fill="white"/>
<path d="M34.6678 61.4497C35.09 61.4497 35.3011 61.2467 35.3011 60.8407C35.3011 60.6224 35.2473 60.4694 35.1399 60.3812C35.0324 60.2893 34.8751 60.2435 34.6678 60.2435H33.0905V61.6218C33.221 61.5455 33.3534 61.4976 33.4877 61.4781C33.6258 61.4591 33.7659 61.4497 33.9079 61.4497H34.6678ZM32.463 63.9025V59.6171H34.6678C34.8559 59.6171 35.0267 59.6459 35.1802 59.7035C35.3375 59.7569 35.4699 59.8375 35.5774 59.9447C35.6887 60.0481 35.7731 60.1765 35.8307 60.3295C35.8921 60.4787 35.9228 60.6491 35.9228 60.8407C35.9228 61.0323 35.8921 61.2043 35.8307 61.3578C35.7731 61.507 35.6887 61.6371 35.5774 61.7481C35.4699 61.8554 35.3375 61.938 35.1802 61.9952C35.0267 62.0529 34.8559 62.0813 34.6678 62.0813H33.9079C33.7698 62.0813 33.6316 62.0931 33.4934 62.116C33.3553 62.1389 33.221 62.1847 33.0905 62.2538V63.9025H32.463Z" fill="white"/>
<path fill-rule="evenodd" clip-rule="evenodd" d="M17.1504 8.61152H31.7171C34.3997 8.61152 36.5733 8.38476 36.5733 8.1063C36.5733 7.82572 34.3997 7.59892 31.7171 7.59892H17.1504C14.4688 7.59892 12.2941 7.82572 12.2941 8.1063C12.2941 8.38476 14.4688 8.61152 17.1504 8.61152Z" fill="white"/>
<path fill-rule="evenodd" clip-rule="evenodd" d="M16.4207 12.4116H32.4877C35.446 12.4116 37.8444 12.1848 37.8444 11.9064C37.8444 11.6258 35.446 11.399 32.4877 11.399H16.4207C13.4624 11.399 11.065 11.6258 11.065 11.9064C11.065 12.1848 13.4624 12.4116 16.4207 12.4116Z" fill="white"/>
<path fill-rule="evenodd" clip-rule="evenodd" d="M16.2343 27.6083H32.4762C35.4663 27.6083 37.8902 27.3815 37.8902 27.102C37.8902 26.8225 35.4663 26.5957 32.4762 26.5957H16.2343C13.2441 26.5957 10.8203 26.8225 10.8203 27.102C10.8203 27.3815 13.2441 27.6083 16.2343 27.6083Z" fill="white"/>
<path fill-rule="evenodd" clip-rule="evenodd" d="M36.6125 30.9014C36.6125 30.6209 34.4124 30.3962 31.7001 30.3962H16.9606C14.2483 30.3962 12.0481 30.6209 12.0481 30.9014C12.0481 31.182 14.2483 31.4078 16.9606 31.4078H31.7001C34.4124 31.4078 36.6125 31.182 36.6125 30.9014Z" fill="white"/>
<path fill-rule="evenodd" clip-rule="evenodd" d="M35.06 34.7004C35.06 34.4209 33.1536 34.1952 30.8018 34.1952H18.0271C15.6753 34.1952 13.7688 34.4209 13.7688 34.7004C13.7688 34.981 15.6753 35.2067 18.0271 35.2067H30.8018C33.1536 35.2067 35.06 34.981 35.06 34.7004Z" fill="white"/>
<path fill-rule="evenodd" clip-rule="evenodd" d="M33.0889 38.4993C33.0889 38.2197 31.5345 37.994 29.6185 37.994H19.2051C17.2891 37.994 15.7347 38.2197 15.7347 38.4993C15.7347 38.7798 17.2891 39.0055 19.2051 39.0055H29.6185C31.5345 39.0055 33.0889 38.7798 33.0889 38.4993Z" fill="white"/>
<path fill-rule="evenodd" clip-rule="evenodd" d="M15.8233 16.2106H33.0461C36.2164 16.2106 38.7866 15.9848 38.7866 15.7053C38.7866 15.4247 36.2164 15.198 33.0461 15.198H15.8233C12.6529 15.198 10.0827 15.4247 10.0827 15.7053C10.0827 15.9848 12.6529 16.2106 15.8233 16.2106Z" fill="white"/>
<path fill-rule="evenodd" clip-rule="evenodd" d="M10.0827 23.3026C10.0827 23.5832 12.6529 23.8088 15.8233 23.8088H33.0461C36.2164 23.8088 38.7866 23.5832 38.7866 23.3026C38.7866 23.022 36.2164 22.7962 33.0461 22.7962H15.8233C12.6529 22.7962 10.0827 23.022 10.0827 23.3026Z" fill="white"/>
<path fill-rule="evenodd" clip-rule="evenodd" d="M15.3805 20.0661H33.4865C36.8201 20.0661 39.5219 19.8393 39.5219 19.5598C39.5219 19.2803 36.8201 19.0535 33.4865 19.0535H15.3805C12.0479 19.0535 9.34515 19.2803 9.34515 19.5598C9.34515 19.8393 12.0479 20.0661 15.3805 20.0661Z" fill="white"/>
<path fill-rule="evenodd" clip-rule="evenodd" d="M19.0163 4.81259H29.5114C32.4103 4.81259 34.76 4.58579 34.76 4.30627C34.76 4.02676 32.4103 3.79998 29.5114 3.79998H19.0163C16.1185 3.79998 13.7688 4.02676 13.7688 4.30627C13.7688 4.58579 16.1185 4.81259 19.0163 4.81259Z" fill="white"/>
<path fill-rule="evenodd" clip-rule="evenodd" d="M21.4593 1.01367H27.184C30.3459 1.01367 32.9097 0.786886 32.9097 0.507363C32.9097 0.226786 30.3459 0 27.184 0H21.4593C18.2985 0 15.7347 0.226786 15.7347 0.507363C15.7347 0.786886 18.2985 1.01367 21.4593 1.01367Z" fill="white"/>
<path fill-rule="evenodd" clip-rule="evenodd" d="M22.6664 13.2984C20.7377 13.2984 19.1748 13.5252 19.1748 13.8037C19.1748 14.0842 20.7377 14.311 22.6664 14.311H26.1581C28.0868 14.311 29.6497 14.0842 29.6497 13.8037C29.6497 13.5252 28.0868 13.2984 26.1581 13.2984H22.6664Z" fill="white"/>
<path fill-rule="evenodd" clip-rule="evenodd" d="M22.2898 17.0974C20.0271 17.0974 18.1917 17.3242 18.1917 17.6037C18.1917 17.8832 20.0271 18.11 22.2898 18.11H26.3879C28.6517 18.11 30.4861 17.8832 30.4861 17.6037C30.4861 17.3242 28.6517 17.0974 26.3879 17.0974H22.2898Z" fill="white"/>
<path fill-rule="evenodd" clip-rule="evenodd" d="M26.9423 21.91C29.698 21.91 31.9321 21.6832 31.9321 21.4037C31.9321 21.1231 29.698 20.8974 26.9423 20.8974H21.9524C19.1966 20.8974 16.9625 21.1231 16.9625 21.4037C16.9625 21.6832 19.1966 21.91 21.9524 21.91H26.9423Z" fill="white"/>
<path fill-rule="evenodd" clip-rule="evenodd" d="M21.478 24.6962C18.4423 24.6962 15.9802 24.923 15.9802 25.2025C15.9802 25.4831 18.4423 25.7088 21.478 25.7088H26.9768C30.0125 25.7088 32.4746 25.4831 32.4746 25.2025C32.4746 24.923 30.0125 24.6962 26.9768 24.6962H21.478Z" fill="white"/>
<path fill-rule="evenodd" clip-rule="evenodd" d="M21.7755 28.4961C18.9827 28.4961 16.7178 28.7229 16.7178 29.0024C16.7178 29.2819 18.9827 29.5087 21.7755 29.5087H26.8343C29.6272 29.5087 31.892 29.2819 31.892 29.0024C31.892 28.7229 29.6272 28.4961 26.8343 28.4961H21.7755Z" fill="white"/>
<path fill-rule="evenodd" clip-rule="evenodd" d="M26.4583 33.3088C28.8769 33.3088 30.8375 33.082 30.8375 32.8025C30.8375 32.5219 28.8769 32.2951 26.4583 32.2951H22.0792C19.6606 32.2951 17.7001 32.5219 17.7001 32.8025C17.7001 33.082 19.6606 33.3088 22.0792 33.3088H26.4583Z" fill="white"/>
<path fill-rule="evenodd" clip-rule="evenodd" d="M26.2412 37.1068C28.26 37.1068 29.8972 36.881 29.8972 36.6015C29.8972 36.3209 28.26 36.0942 26.2412 36.0942H22.5852C20.5664 36.0942 18.9292 36.3209 18.9292 36.6015C18.9292 36.881 20.5664 37.1068 22.5852 37.1068H26.2412Z" fill="white"/>
</g>
</g>
</g>
<defs>
<clipPath id="clip0_0_65">
<rect width="48" height="64" fill="white"/>
</clipPath>
</defs>
</svg>
