<svg width="77" height="32" viewBox="0 0 77 32" fill="none" xmlns="http://www.w3.org/2000/svg">
<g clip-path="url(#clip0_0_69)">
<path d="M43.9665 14.7648C43.144 15.2047 42.2202 15.4192 41.2887 15.3864C40.1049 15.3864 39.1716 15.0579 38.4888 14.4008C37.8059 13.7438 37.4645 12.8387 37.4645 11.6856C37.4451 11.1605 37.5346 10.6371 37.7275 10.1486C37.9205 9.66015 38.2125 9.21722 38.5851 8.84795C38.983 8.47473 39.4513 8.18526 39.9625 7.99661C40.4738 7.80797 41.0175 7.72398 41.5616 7.74961C42.2632 7.7359 42.9618 7.8449 43.6262 8.0717V9.63064C42.9822 9.28261 42.2572 9.11358 41.5263 9.14105C41.2146 9.13004 40.9041 9.18419 40.6144 9.30009C40.3248 9.41598 40.0623 9.59107 39.8438 9.81423C39.6236 10.0557 39.4535 10.3386 39.3432 10.6466C39.233 10.9546 39.1848 11.2815 39.2016 11.6083C39.1609 12.2494 39.3705 12.8813 39.786 13.3701C39.9891 13.58 40.2345 13.7439 40.5058 13.8511C40.7771 13.9583 41.0681 14.0063 41.3593 13.9918C41.6827 14.0056 42.0051 13.9473 42.3033 13.8211V12.3813H40.8295V11.0511H43.9601L43.9665 14.7648Z" fill="white"/>
<path d="M51.8717 15.2576H50.064L49.5534 13.6149H46.9366L46.4196 15.2576H44.6215L47.2994 7.87523H49.2645L51.8717 15.2576ZM49.1617 12.3394L48.3718 9.8561C48.3081 9.63982 48.2672 9.41743 48.2498 9.19259H48.2081C48.1905 9.41161 48.1474 9.62781 48.0796 9.83677L47.2801 12.3394H49.1617Z" fill="white"/>
<path d="M58.7269 14.7648C57.9043 15.2047 56.9806 15.4192 56.049 15.3864C54.8653 15.3864 53.932 15.0579 53.2491 14.4008C52.5663 13.7438 52.2249 12.8387 52.2249 11.6856C52.2054 11.1605 52.295 10.6371 52.4879 10.1486C52.6808 9.66015 52.9729 9.21722 53.3455 8.84795C53.7433 8.47473 54.2117 8.18526 54.7229 7.99661C55.2341 7.80797 55.7778 7.72398 56.322 7.74961C57.0236 7.7359 57.7222 7.8449 58.3865 8.0717V9.63064C57.7454 9.28429 57.024 9.11531 56.2963 9.14105C55.9846 9.13004 55.6741 9.18419 55.3844 9.30009C55.0948 9.41598 54.8323 9.59107 54.6138 9.81423C54.3936 10.0557 54.2235 10.3386 54.1132 10.6466C54.003 10.9546 53.9548 11.2815 53.9716 11.6083C53.9309 12.2494 54.1405 12.8813 54.556 13.3701C54.7591 13.58 55.0045 13.7439 55.2758 13.8511C55.5471 13.9583 55.8381 14.0063 56.1293 13.9918C56.4527 14.0056 56.7751 13.9473 57.0733 13.8211V12.3813H55.5995V11.0511H58.7301L58.7269 14.7648Z" fill="white"/>
<path d="M66.1601 12.0624C66.1601 14.2806 65.1304 15.3897 63.0712 15.3897C61.0719 15.3897 60.0723 14.3064 60.0723 12.1397V7.87523H61.7355V12.1591C61.7355 13.353 62.2011 13.9499 63.1322 13.9499C64.0634 13.9499 64.5204 13.3734 64.5033 12.2203V7.87523H66.1601V12.0624Z" fill="white"/>
<path d="M74.0042 15.2576H72.1965L71.6731 13.6149H69.0563L68.5393 15.2576H66.7412L69.4191 7.87523H71.3874L74.0042 15.2576ZM71.2942 12.3394L70.5044 9.8561C70.4407 9.63982 70.3998 9.41743 70.3824 9.19259H70.3406C70.323 9.41161 70.2799 9.62781 70.2122 9.83677L69.4127 12.3394H71.2942Z" fill="white"/>
<path d="M42.101 23.9187C41.5963 24.1443 41.0479 24.2543 40.4956 24.2408C40.0957 24.2467 39.699 24.17 39.33 24.0153C38.99 23.8671 38.6856 23.6474 38.4374 23.3711C38.1839 23.091 37.9895 22.7623 37.8659 22.4049C37.7356 22.0257 37.6705 21.6271 37.6732 21.226C37.6687 20.7875 37.7404 20.3515 37.8851 19.9376C38.0183 19.5559 38.2257 19.2045 38.4952 18.9037C38.7641 18.6082 39.0924 18.3732 39.4585 18.2144C39.8579 18.0425 40.2889 17.9569 40.7235 17.9632C41.1945 17.9559 41.6628 18.0367 42.1042 18.2015V18.8039C41.6725 18.5882 41.1962 18.4778 40.7139 18.4818C40.3557 18.4749 40.0001 18.5441 39.6704 18.6847C39.3758 18.8141 39.1136 19.0078 38.903 19.2516C38.6887 19.5027 38.5261 19.7939 38.4246 20.1083C38.312 20.4567 38.2567 20.8212 38.2608 21.1874C38.2584 21.5227 38.3083 21.8563 38.4085 22.1762C38.4999 22.4727 38.6483 22.7484 38.8452 22.9879C39.0416 23.2223 39.2872 23.4104 39.5644 23.5386C39.8792 23.6799 40.2214 23.7492 40.5662 23.7416C41.1018 23.7536 41.6315 23.6271 42.1042 23.3744L42.101 23.9187Z" fill="white"/>
<path d="M43.8252 24.1571V18.0695H44.3871V23.632H46.821V24.1571H43.8252Z" fill="white"/>
<path d="M48.8374 24.1571H48.2691V18.0695H48.831L48.8374 24.1571Z" fill="white"/>
<path d="M54.9927 24.1571L51.6309 19.2677L51.5056 19.0776C51.467 19.0173 51.4337 18.9537 51.4061 18.8876H51.3836C51.3836 18.9391 51.3836 19.01 51.3836 19.1002C51.3836 19.1904 51.3836 19.3031 51.3836 19.4384V24.1571H50.8378V18.0695H51.48L54.7872 22.9009L54.9252 23.1135L55.0376 23.2971H55.0601C55.0494 23.2047 55.0408 23.0974 55.0344 22.975C55.028 22.8526 55.028 22.7237 55.0344 22.5885V18.0791H55.5995V24.1571H54.9927Z" fill="white"/>
<path d="M58.1393 24.1571H57.5806V18.0695H58.1425L58.1393 24.1571Z" fill="white"/>
<path d="M64.2175 23.9187C63.7128 24.1443 63.1644 24.2543 62.612 24.2408C62.2122 24.2467 61.8155 24.17 61.4465 24.0153C61.1065 23.8671 60.8021 23.6474 60.5539 23.3711C60.3004 23.091 60.1059 22.7623 59.9823 22.4049C59.8463 22.0159 59.7789 21.606 59.7833 21.1938C59.7788 20.7552 59.8505 20.3193 59.9952 19.9054C60.1284 19.5237 60.3357 19.1723 60.6053 18.8715C60.8741 18.576 61.2024 18.341 61.5685 18.1822C61.9679 18.0103 62.399 17.9247 62.8336 17.931C63.3046 17.9236 63.7728 18.0045 64.2143 18.1693V18.7717C63.7826 18.556 63.3062 18.4456 62.824 18.4496C62.4658 18.4427 62.1101 18.5119 61.7804 18.6525C61.4858 18.7819 61.2237 18.9755 61.013 19.2194C60.7988 19.4705 60.6362 19.7617 60.5346 20.0761C60.4221 20.4245 60.3668 20.7889 60.3709 21.1551C60.3685 21.4905 60.4183 21.8241 60.5186 22.144C60.61 22.4405 60.7583 22.7162 60.9552 22.9556C61.1517 23.1901 61.3972 23.3782 61.6745 23.5064C61.9893 23.6477 62.3315 23.717 62.6763 23.7093C63.2118 23.7214 63.7415 23.5949 64.2143 23.3422L64.2175 23.9187Z" fill="white"/>
<path d="M25.26 20.9361C25.2273 21.8274 24.9757 22.6968 24.5276 23.4672C24.0795 24.2375 23.4487 24.8849 22.6913 25.352C21.8698 25.8662 20.9267 26.1519 19.9588 26.1798H19.6378C18.9496 26.1678 18.2648 26.0803 17.5956 25.9189C18.1327 25.872 18.6627 25.7639 19.1754 25.5968C20.1387 25.2747 20.2542 24.7078 20.2542 24.7078C19.4982 24.2135 18.9442 23.4632 18.6932 22.5937C18.4421 21.7241 18.5107 20.793 18.8864 19.9698C19.1638 19.2461 19.6702 18.6337 20.3279 18.2264C20.9856 17.8192 21.7583 17.6396 22.5275 17.7152C23.3155 17.7792 24.0459 18.1545 24.5582 18.7584C25.0706 19.3623 25.323 20.1456 25.26 20.9361Z" fill="white"/>
<path d="M30.0024 27.5294C27.0502 30.427 23.0744 32.0343 18.9442 32C17.8655 32.0081 16.7891 31.9001 15.7333 31.6779C13.3381 31.1841 11.0882 30.1446 9.15728 28.6395C7.22639 27.1345 5.66627 25.2043 4.59746 22.9981C3.52865 20.7919 2.97977 18.3688 2.99322 15.9159C3.00667 13.463 3.5821 11.0461 4.67504 8.85179C5.76799 6.65752 7.34918 4.74468 9.29646 3.26106C11.2437 1.77744 13.505 0.762762 15.9054 0.295425C18.3059 -0.171913 20.7814 -0.0793988 23.1405 0.56582C25.4997 1.21104 27.6794 2.39169 29.5112 4.01654C27.3258 2.82795 24.8573 2.26321 22.3743 2.38377C19.8912 2.50433 17.4886 3.30556 15.4279 4.70031C13.3671 6.09507 11.727 8.02996 10.686 10.2945C9.64501 12.5591 9.24293 15.0667 9.52351 17.5445C9.52429 17.553 9.52429 17.5617 9.52351 17.5702C9.72357 20.1387 10.8706 22.5403 12.7407 24.3061C14.6109 26.0719 17.0699 27.0753 19.6378 27.1203H19.9942C21.6546 27.0734 23.2314 26.379 24.3897 25.1846C25.548 23.9902 26.1966 22.3899 26.1976 20.7235C26.2233 18.5397 24.4284 16.8842 22.2546 16.7682C21.7088 16.7392 20.5496 16.8713 19.8689 17.4607L20.1001 16.9873C20.5561 16.0854 22.2065 13.5795 26.0402 13.6214C29.7648 13.66 32.4427 16.5395 32.7638 20.0922C32.812 20.6366 33.0239 24.521 30.0024 27.5294Z" fill="white"/>
<path d="M29.0039 4.80889C28.2685 4.41015 27.4951 4.08644 26.6952 3.84261H26.6728C25.4957 3.4683 24.2664 3.28561 23.0316 3.3015C19.6763 3.30831 16.4605 4.6493 14.0891 7.03054C11.7177 9.41177 10.3842 12.639 10.3808 16.0049C10.8343 14.88 11.4641 13.835 12.2463 12.9095C13.5853 11.4633 14.6898 11.1702 14.6898 11.1702C14.6898 11.1702 16.0994 13.9338 18.4915 13.805C22.6849 13.5795 26.0595 10.9512 27.5301 8.37447C28.1447 7.2411 28.6387 6.04599 29.0039 4.80889Z" fill="white"/>
</g>
<defs>
<clipPath id="clip0_0_69">
<rect width="77" height="32" fill="white"/>
</clipPath>
</defs>
</svg>
