<svg width="93" height="24" viewBox="0 0 93 24" fill="none" xmlns="http://www.w3.org/2000/svg">
<g clip-path="url(#clip0_0_52)">
<path fill-rule="evenodd" clip-rule="evenodd" d="M80.2189 17.6613C80.2189 15.7951 82.1144 14.8377 82.1144 14.8377L86.458 12.9725C87.6077 12.6281 87.4039 11.4699 87.4039 11.4699V10.5104C87.4039 9.42787 86.4941 9.35445 86.4941 9.35445C84.9439 9.33724 85.0962 11.0922 85.0962 11.0922C84.8117 12.8646 82.8623 12.8646 82.8623 12.8646C79.9822 12.8646 80.3684 10.1457 80.3684 10.1457C80.6236 7.31287 83.7087 6.2384 83.7087 6.2384C85.0166 5.72998 86.7622 5.83735 86.7622 5.83735C92.7883 6.26745 92.8702 10.7954 92.8702 10.7954V21.5123C92.8702 22.9263 91.765 23.8233 90.401 23.8956C88.7701 23.982 87.9294 23.1702 87.9996 22.4212C87.8872 22.2226 87.7725 22.3651 87.7725 22.3651C87.1706 24.1061 84.3491 23.9496 84.3491 23.9496C80.4481 23.8956 80.208 20.3381 80.208 20.3381C80.208 20.3381 80.2189 19.7714 80.2189 17.6613ZM85.512 16.9726C85.512 16.9726 84.6797 17.2618 84.6235 18.1339C84.5954 18.6001 84.6351 18.9271 84.6351 18.9271C84.6351 19.673 84.8412 20.5138 86.0776 20.4598C86.8855 20.4263 87.3748 20.1112 87.3748 18.9477L87.3794 16.3767C87.3794 16.3767 87.4041 16.2309 87.2881 16.1003C87.2097 16.0961 86.9884 16.299 86.8502 16.3539C86.1209 16.6413 85.512 16.9726 85.512 16.9726Z" fill="white"/>
<path d="M21.6673 18.4265L21.6579 8.29784C21.6579 6.95732 20.4203 5.92279 19.0546 5.92279C17.6882 5.92279 16.4507 7.03879 16.4507 8.29784V20.3381C16.4507 20.3381 16.2551 23.493 20.6527 23.8222C20.6527 23.8222 23.1442 23.7639 24.1211 22.3855C24.1211 22.3855 24.0983 22.3219 24.2112 22.5204C24.5455 23.4163 25.7865 23.8459 26.87 23.8091C28.7046 23.7466 29.3866 22.7719 29.3866 21.5122V8.29784C29.3866 7.03879 28.1028 5.95563 26.7359 5.95563C25.3702 5.95563 24.1596 7.03879 24.1596 8.29784V18.4449C24.2024 19.2782 23.7287 19.8265 22.9508 19.8265C22.1742 19.8265 21.6673 19.3462 21.6673 18.4265Z" fill="white"/>
<path d="M73.955 11.7895L73.9667 21.5447C73.9667 22.8054 75.3249 23.8254 76.6923 23.8254C78.0575 23.8254 79.254 22.8054 79.254 21.5447V9.50558C79.254 9.50558 79.1731 5.94473 74.9571 6.02194C74.9571 6.02194 72.433 6.04405 71.8054 8.05705C71.8054 8.05705 71.5817 7.63768 71.48 7.43905C70.9672 6.30837 70.0492 5.97647 68.9651 5.97647C67.5999 5.97647 66.4971 7.07194 66.4971 8.33116V21.5447C66.4971 22.8054 67.5999 23.8254 68.9651 23.8254C70.3303 23.8254 71.7715 22.8054 71.7715 21.5447V11.7701C71.7715 11.0523 72.0419 10.5537 72.8205 10.5537C73.5991 10.5537 73.955 11.0717 73.955 11.7895Z" fill="white"/>
<path d="M38.2317 11.6364L38.2363 21.4543C38.2363 22.7128 39.4435 23.7663 40.8087 23.7663C42.1751 23.7663 43.5519 22.7226 43.5975 21.545V11.7605C43.5975 11.0427 44.0202 10.5505 44.7976 10.5505C45.575 10.5505 45.9391 11.0719 45.9391 11.7897L45.9449 21.5449C45.9941 22.7073 47.1673 23.7791 48.5323 23.7791C49.8987 23.7791 51.3024 22.7299 51.3141 21.5449V9.50557C51.3141 9.50557 51.3 6.03979 47.1741 6.03979C47.1741 6.03979 44.2366 5.95452 43.3397 8.32263C43.3397 8.32263 43.2882 8.22331 43.1746 8.02579C42.6407 6.96915 41.669 6.03979 39.5825 6.03979C39.5825 6.03979 37.0536 5.8331 36.104 8.01931C36.104 8.01931 35.9788 7.73763 35.8663 7.54057C35.5332 6.64421 34.4999 5.93021 33.4158 5.93021C31.814 5.93021 30.8325 7.0721 30.8325 8.33131V21.5449C30.8325 22.8055 32.09 23.7662 33.4557 23.7662C34.8226 23.7662 36.0479 22.622 36.0946 21.5449V11.7701C36.1181 11.088 36.3791 10.5515 37.1565 10.5515C37.9339 10.5515 38.2435 11.1128 38.2317 11.6364Z" fill="white"/>
<path fill-rule="evenodd" clip-rule="evenodd" d="M52.4417 17.6613C52.4417 15.7951 54.3384 14.8377 54.3384 14.8377L58.682 12.9725C59.8317 12.6281 59.6279 11.4699 59.6279 11.4699V10.5104C59.6279 9.42787 58.7181 9.35445 58.7181 9.35445C57.1679 9.33724 57.3202 11.0922 57.3202 11.0922C57.0357 12.8646 55.0851 12.8646 55.0851 12.8646C52.2061 12.8646 52.5912 10.1457 52.5912 10.1457C52.8464 7.31287 55.9315 6.2384 55.9315 6.2384C57.2394 5.72998 58.9862 5.83735 58.9862 5.83735C65.0123 6.26745 65.0942 10.7954 65.0942 10.7954V21.5123C65.0942 22.9263 63.989 23.8233 62.6238 23.8956C60.9929 23.982 60.1534 23.1702 60.2236 22.4212C60.1088 22.2226 59.9941 22.3651 59.9941 22.3651C59.3946 24.1061 56.5729 23.9496 56.5729 23.9496C52.6719 23.8956 52.4318 20.3381 52.4318 20.3381C52.4318 20.3381 52.4417 19.7714 52.4417 17.6613ZM57.736 16.9726C57.736 16.9726 56.9037 17.2618 56.8475 18.1339C56.817 18.6001 56.8591 18.9271 56.8591 18.9271C56.8591 19.673 57.0652 20.5138 58.3016 20.4598C59.1095 20.4263 59.5988 20.1112 59.5988 18.9477L59.6034 16.3767C59.6034 16.3767 59.6281 16.2309 59.5121 16.1003C59.4337 16.0961 59.2124 16.299 59.0742 16.3539C58.3449 16.6413 57.736 16.9726 57.736 16.9726Z" fill="white"/>
<path d="M8.99531 9.68478H5.92956L5.90558 2.93067C5.90558 1.27704 4.50305 0.162146 2.9253 0.162146C1.34584 0.162146 0.0726166 1.4752 0.0726166 2.93067V21.0655C0.0726166 22.5205 1.29086 23.7693 2.86964 23.7693C4.4491 23.7693 5.90901 22.6393 5.90901 21.0849V13.7561H8.99531L8.99119 21.0849C8.99119 22.5399 10.2744 23.7693 11.8531 23.7693C13.4319 23.7693 14.7976 22.581 14.7976 21.0655V2.93067C14.7978 1.31273 13.4319 0.146515 11.8531 0.146515C10.2744 0.146515 8.99531 1.33925 8.99531 2.93067V9.68478Z" fill="white"/>
</g>
<defs>
<clipPath id="clip0_0_52">
<rect width="93" height="24" fill="white"/>
</clipPath>
</defs>
</svg>
