<svg width="131" height="32" viewBox="0 0 131 32" fill="none" xmlns="http://www.w3.org/2000/svg">
<path d="M130.98 15.961C130.98 17.9086 130.829 19.8641 130.702 21.8037C130.577 23.7075 129.521 25.1756 127.938 26.1444C125.12 27.8711 122.272 29.5521 119.392 31.1675C117.475 32.2437 115.467 32.3054 113.516 31.1834C110.625 29.5183 107.724 27.8672 104.874 26.1285C102.973 24.9687 102.058 23.1743 102.03 20.9045C102.007 18.953 101.897 17.0034 101.897 15.0539C101.897 13.4684 101.958 11.8789 102.081 10.2994C102.228 8.42545 103.166 6.94538 104.718 5.98851C107.642 4.18618 110.606 2.44354 113.601 0.762555C115.471 -0.287811 117.461 -0.232109 119.316 0.800353C122.231 2.42166 125.118 4.10263 127.952 5.86518C129.934 7.09856 130.822 9.06203 130.892 11.3895C130.937 12.9114 130.984 14.3974 130.984 15.9232C130.929 15.9232 131.039 15.963 130.984 15.963L130.98 15.961ZM118.094 17.2123C118.094 16.9477 118.123 16.6792 118.088 16.4186C117.961 15.4657 118.339 15.0897 119.289 15.1951C119.9 15.2628 120.525 15.1931 121.144 15.2091C121.972 15.2329 122.158 14.8271 121.962 14.0751C121.496 12.2867 119.818 10.9678 117.912 10.9201C116.196 10.8783 114.419 12.2708 113.939 14.0393C113.442 15.8636 114.268 17.8907 115.884 18.8137C117.635 19.8144 118.094 19.5438 118.096 17.5087C118.096 17.4093 118.096 17.3098 118.096 17.2103L118.094 17.2123ZM111.117 15.7362C111.34 16.3748 111.589 17.638 112.192 18.6924C113.271 20.5783 114.936 21.7778 117.154 21.933C117.44 21.9529 117.967 21.551 118.004 21.2904C118.045 21.006 117.667 20.6379 117.424 20.3455C117.342 20.246 117.118 20.262 116.96 20.2321C114.131 19.7069 112.288 16.8224 112.978 13.9995C113.534 11.7178 115.05 10.4864 117.248 10.0388C117.896 9.9075 118.155 9.53947 118.053 8.92277C117.941 8.24839 117.455 8.25237 116.924 8.35383C113.601 8.98445 111.215 11.7755 111.121 15.7382L111.117 15.7362ZM108.537 15.9093C109.009 20.5703 112.557 24.3182 117.189 24.7061C117.457 24.728 118.021 24.2307 118 24.0278C117.961 23.6736 117.626 23.2738 117.306 23.0589C117.04 22.8799 116.605 22.9873 116.266 22.8899C112.921 21.929 110.809 19.8144 110.259 16.2375C110.173 15.6746 110.155 14.8808 109.301 15.0937C108.937 15.1852 108.686 15.7422 108.539 15.9093H108.537Z" fill="white"/>
<path d="M0.0222741 14.841C0.0222741 12.6886 0.0438205 10.5341 0.0105223 8.38367C-0.00123 7.65757 0.239695 7.36713 0.968339 7.40095C2.07502 7.45267 3.18561 7.40095 4.29229 7.45267C6.23925 7.54219 7.87478 8.99439 8.12549 10.7987C8.48198 13.361 7.5418 15.1673 5.38916 15.8456C4.59588 16.0963 3.73601 16.1759 2.89963 16.2196C2.27676 16.2515 2.028 16.4404 2.04171 17.089C2.07305 18.5133 2.02213 19.9377 2.0613 21.3601C2.08089 22.0802 1.94966 22.4621 1.10741 22.4383C0.355258 22.4164 -0.0188561 22.2811 0.000731109 21.3999C0.0516578 19.2156 0.0183589 17.0293 0.0183589 14.843L0.0222741 14.841ZM2.05346 11.7635C2.05346 12.2589 2.04955 12.7522 2.05346 13.2476C2.06326 14.3517 2.21996 14.481 3.33447 14.3079C3.49508 14.284 3.65178 14.2422 3.8124 14.2224C5.44009 14.0214 6.28822 13.162 6.27647 11.7257C6.26276 10.3611 5.27948 9.4221 3.71838 9.28284C2.09656 9.13961 2.05542 9.17542 2.05346 10.7748C2.05346 11.1051 2.05346 11.4353 2.05346 11.7635Z" fill="white"/>
<path d="M77.662 13.6753C77.7736 13.5659 78.0067 13.1322 78.326 13.0546C79.4072 12.794 79.6579 13.0407 79.6599 14.1746C79.6638 16.4962 79.6834 18.8157 79.6422 21.1373C79.6344 21.559 79.4542 22.2572 79.2015 22.3388C78.5943 22.5338 77.8147 22.6352 77.6032 21.4814C76.2909 22.5974 74.8728 23.0928 73.3685 22.5179C72.5869 22.2195 71.8074 21.6366 71.2824 20.9741C69.8036 19.1101 69.9035 16.1361 71.3588 14.3357C72.1462 13.361 73.1471 12.6846 74.3948 12.8258C75.476 12.9492 76.5259 13.3709 77.662 13.6793V13.6753ZM77.8285 17.8171C77.8343 16.2117 77.1507 15.0718 75.9481 14.6739C74.7729 14.286 73.6133 14.654 72.914 15.6368C72.0737 16.8184 72.062 18.6387 72.8886 19.8223C73.5702 20.7991 74.7121 21.1989 75.811 20.8428C77.1429 20.4112 77.8245 19.3886 77.8304 17.8191L77.8285 17.8171Z" fill="white"/>
<path d="M94.6186 19.1698C95.1552 19.4921 95.6195 19.7726 96.0719 20.0451C95.3237 21.7977 93.4688 22.9376 91.7236 22.7844C89.5279 22.5934 87.8061 21.2904 87.4712 19.3389C87.291 18.2925 87.2792 17.1546 87.4771 16.1142C87.9335 13.7171 90.0352 12.4658 92.7088 12.8258C94.6597 13.0884 96.1033 14.9624 96.1189 17.1666C96.1248 17.8767 95.8506 18.0896 95.1925 18.0777C93.5942 18.0498 91.9939 18.0578 90.3956 18.0757C89.3653 18.0876 89.1929 18.38 89.5886 19.3648C90.2839 21.0935 92.3954 21.5371 93.6921 20.2182C93.9898 19.9158 94.2562 19.5796 94.6147 19.1698H94.6186ZM93.9879 16.526C93.792 15.1613 92.8733 14.4094 91.6844 14.5088C90.5346 14.6043 89.71 15.412 89.6924 16.526H93.9898H93.9879Z" fill="white"/>
<path d="M35.1029 12.7841C37.947 12.7841 40.0467 14.9107 40.0546 17.7773C40.0605 20.2083 38.3387 22.7228 35.0422 22.7486C32.4313 22.7685 30.1807 21.0736 30.0925 17.7097C30.0162 14.7575 32.4939 12.605 35.101 12.7841H35.1029ZM38.0508 17.7992C38.0684 15.9411 36.8188 14.5307 35.1284 14.4989C33.4361 14.469 32.1159 15.8675 32.1022 17.6997C32.0904 19.5995 33.299 20.9543 35.0246 20.9741C36.7581 20.994 38.0332 19.6552 38.0489 17.7972L38.0508 17.7992Z" fill="white"/>
<path d="M50.428 27.6085C50.8726 26.7452 51.2996 25.9057 51.7344 25.0721C52.3592 23.8746 53.0428 22.7048 53.5932 21.4715C53.7715 21.0736 53.7676 20.433 53.5717 20.0471C52.5277 17.9901 51.3936 15.9809 50.2967 13.9538C50.1616 13.7031 50.0538 13.4385 49.9246 13.164C51.7971 12.7761 51.9499 12.8378 52.7725 14.3596C53.368 15.4617 53.9458 16.5717 54.5374 17.6738C54.6705 17.9225 54.8351 18.1513 55.1015 18.571C55.8536 17.0591 56.5215 15.7183 57.1855 14.3735C57.9494 12.8318 58.0219 12.794 59.9689 13.1581C59.5086 14.095 59.0777 15.0081 58.6193 15.9073C56.8408 19.4006 55.0466 22.8879 53.2701 26.3851C52.4807 27.9408 52.3083 28.0342 50.428 27.6085Z" fill="white"/>
<path d="M64.1194 15.8416C64.1194 13.9518 64.0939 12.0619 64.1311 10.172C64.1448 9.47974 63.9235 9.20522 63.2379 9.26489C62.7522 9.30866 62.2586 9.24898 61.7709 9.27882C61.1323 9.31861 60.7269 9.22113 60.721 8.39556C60.7171 7.57596 61.0442 7.38697 61.7748 7.39691C64.0919 7.42874 66.4111 7.43073 68.7282 7.39691C69.4588 7.38697 69.6939 7.65752 69.69 8.38362C69.686 9.09182 69.4177 9.27882 68.7557 9.28677C66.2975 9.31463 66.2975 9.33452 66.2975 11.853C66.2975 15.0359 66.2661 18.2189 66.317 21.3998C66.3308 22.297 65.9645 22.4362 65.2143 22.4303C64.4798 22.4263 64.0665 22.3268 64.0998 21.4097C64.1664 19.5557 64.1194 17.6977 64.1194 15.8416Z" fill="white"/>
<path d="M22.5319 15.772C20.3107 14.2343 18.8475 14.1865 17.686 15.6149C16.6322 16.9119 16.7223 19.0226 17.876 20.1565C19.1296 21.3879 20.769 21.2228 22.6063 19.5657C22.6063 20.3455 22.6514 21.0139 22.5808 21.6704C22.5573 21.8952 22.2792 22.1618 22.052 22.2811C20.3812 23.1564 18.0327 22.7944 16.5813 21.4734C15.0065 20.0391 14.5207 18.016 15.2611 15.959C15.9114 14.1507 17.6723 12.8656 19.6016 12.792C19.7329 12.788 19.8621 12.7821 19.9934 12.7821C22.4183 12.7761 22.8512 13.2854 22.5319 15.77V15.772Z" fill="white"/>
<path d="M84.7114 14.2363C84.7114 16.6195 84.6859 19.0047 84.7251 21.3879C84.7369 22.1498 84.5429 22.4562 83.7399 22.4343C83.0171 22.4144 82.6959 22.2772 82.7017 21.4396C82.739 16.5718 82.737 11.7039 82.7017 6.83796C82.6959 6.00841 83.0053 5.85523 83.7359 5.83931C84.5371 5.82141 84.7349 6.1218 84.7231 6.88371C84.684 9.33258 84.7094 11.7834 84.7094 14.2343L84.7114 14.2363Z" fill="white"/>
<path d="M24.945 18.5989C24.945 17.7375 24.9509 16.8761 24.9431 16.0147C24.9372 15.5094 25.0528 15.0221 24.3731 14.7038C24.1772 14.6122 24.3241 13.6275 24.426 13.0745C24.4906 12.7303 24.8628 12.4419 24.9215 12.0977C25.0097 11.5825 24.9862 11.0374 24.9353 10.5122C24.8589 9.70656 25.1292 9.40817 25.9655 9.41215C26.7647 9.41613 27.0252 9.70059 26.9449 10.4625C26.9057 10.8226 26.9664 11.1926 26.9331 11.5547C26.8489 12.4896 26.9429 13.2118 28.1809 13.0725C28.316 13.0566 28.647 13.6753 28.6529 14.0055C28.6588 14.282 28.2984 14.8231 28.1436 14.8072C26.9606 14.6878 26.9057 15.3762 26.9253 16.2793C26.9664 18.0339 26.9018 19.7925 26.9508 21.5471C26.9743 22.3945 26.5296 22.4263 25.9068 22.4243C25.3094 22.4243 24.8922 22.3647 24.9294 21.5829C24.9783 20.5922 24.9411 19.5955 24.9411 18.6009L24.945 18.5989Z" fill="white"/>
<path d="M44.7379 13.7628C45.9837 12.6706 47.153 12.4677 48.5222 13.2595C48.3302 13.6872 48.2342 14.099 47.9913 14.3755C47.7896 14.6043 47.3802 14.839 47.1158 14.7873C45.7956 14.5307 44.9455 14.9027 44.7673 16.2713C44.5479 17.9623 44.5773 19.693 44.5851 21.4058C44.5891 22.1896 44.356 22.4442 43.5803 22.4343C42.8399 22.4243 42.5383 22.2473 42.5559 21.4277C42.6049 19.0484 42.552 16.6652 42.5931 14.284C42.601 13.8642 42.8321 13.1143 43.0182 13.0964C43.6156 13.0347 44.4382 12.603 44.7399 13.7628H44.7379Z" fill="white"/>
<path d="M10.4388 17.6121C10.4388 16.3549 10.4721 15.0956 10.427 13.8384C10.3976 13.0466 10.8305 12.9989 11.4162 13.0148C11.9607 13.0287 12.4543 12.967 12.4425 13.7986C12.4112 16.4145 12.4112 19.0305 12.4425 21.6445C12.4523 22.486 11.9411 22.3965 11.4064 22.4183C10.8109 22.4422 10.3996 22.3666 10.427 21.5848C10.4721 20.2619 10.4388 18.937 10.4388 17.6121Z" fill="white"/>
<path d="M12.6462 8.87903C12.656 9.58326 12.041 10.2537 11.3887 10.2517C10.7247 10.2497 10.0744 9.59917 10.0588 8.91683C10.0392 8.16486 10.57 7.63172 11.3476 7.6158C12.1389 7.60188 12.6345 8.08529 12.6462 8.87903Z" fill="white"/>
</svg>
