<svg width="1240" height="397" viewBox="0 0 1240 397" fill="none" xmlns="http://www.w3.org/2000/svg">
<path opacity="0.2" fill-rule="evenodd" clip-rule="evenodd" d="M0 -150L1236.91 -150V-146.91L1240 -146.91V393.91L1236.91 393.91V397L0 397L0 -150ZM1190.52 347.554H1236.91V393.91L1190.52 393.91V347.554ZM1187.43 347.554V393.91H1141.05V347.554H1187.43ZM1187.43 344.463V298.107H1141.05V344.463H1187.43ZM1190.52 298.107V344.463H1236.91V298.107H1190.52ZM1187.43 295.017H1141.05V248.661H1187.43V295.017ZM1190.52 248.661V295.017H1236.91V248.661H1190.52ZM1187.43 245.571H1141.05V199.215H1187.43V245.571ZM1190.52 199.215V245.571H1236.91V199.215H1190.52ZM1187.43 196.124H1141.05V149.768H1187.43V196.124ZM1190.52 149.768V196.124H1236.91V149.768H1190.52ZM1187.43 146.678H1141.05V100.322L1187.43 100.322V146.678ZM1190.52 100.322V146.678H1236.91V100.322H1190.52ZM1187.43 97.2316L1141.05 97.2316V50.8757L1187.43 50.8757V97.2316ZM1190.52 50.8757V97.2316H1236.91V50.8757H1190.52ZM1187.43 47.7853L1141.05 47.7853V1.42937L1187.43 1.42937V47.7853ZM1190.52 1.42937V47.7853H1236.91V1.42937H1190.52ZM1187.43 -1.66103L1141.05 -1.66103V-48.017H1187.43V-1.66103ZM1190.52 -48.017V-1.66103H1236.91V-48.017H1190.52ZM1187.43 -51.1074H1141.05V-97.4633H1187.43V-51.1074ZM1190.52 -97.4633V-51.1074H1236.91V-97.4633L1190.52 -97.4633ZM1190.52 -100.554L1236.91 -100.554V-146.91L1190.52 -146.91V-100.554ZM1187.43 -100.554H1141.05V-146.91L1187.43 -146.91V-100.554ZM3.09227 -146.91H49.4763V-100.554H3.09227L3.09227 -146.91ZM3.09227 -97.4632H49.4763L49.4763 -51.1073H3.09227L3.09227 -97.4632ZM3.09227 -48.0169H49.4763V-1.66096H3.09227L3.09227 -48.0169ZM3.09227 1.42943H49.4763L49.4763 47.7853H3.09227L3.09227 1.42943ZM3.09227 50.8757H49.4763V97.2317H3.09227L3.09227 50.8757ZM3.09227 100.322H49.4763L49.4763 146.678H3.09227L3.09227 100.322ZM3.09227 149.768H49.4763V196.124H3.09227L3.09227 149.768ZM3.09227 199.215H49.4763V245.571H3.09227L3.09227 199.215ZM3.09227 248.661H49.4763L49.4763 295.017H3.09227L3.09227 248.661ZM3.09227 298.107H49.4763V344.463H3.09227L3.09227 298.107ZM3.09227 347.554H49.4763L49.4763 393.91H3.09227L3.09227 347.554ZM1137.96 393.91H1091.57V347.554H1137.96V393.91ZM1042.09 393.91H1088.48V347.554H1042.09V393.91ZM1042.09 344.463H1088.48V298.107H1042.09V344.463ZM1091.57 298.107V344.463H1137.96V298.107H1091.57ZM1137.96 295.017H1091.57V248.661H1137.96V295.017ZM1088.48 248.661V295.017H1042.09V248.661H1088.48ZM1042.09 245.571H1088.48V199.215H1042.09V245.571ZM1091.57 199.215V245.571H1137.96V199.215H1091.57ZM1137.96 196.124H1091.57V149.768H1137.96V196.124ZM1088.48 149.768V196.124H1042.09V149.768H1088.48ZM1042.09 146.678H1088.48V100.322H1042.09V146.678ZM1091.57 100.322V146.678H1137.96V100.322H1091.57ZM1137.96 97.2316H1091.57V50.8757H1137.96V97.2316ZM1088.48 50.8757V97.2316H1042.09V50.8757H1088.48ZM1042.09 47.7853H1088.48V1.42938H1042.09V47.7853ZM1091.57 1.42938V47.7853H1137.96V1.42938H1091.57ZM1137.96 -1.66101H1091.57V-48.0169H1137.96V-1.66101ZM1088.48 -48.0169V-1.66101H1042.09V-48.0169L1088.48 -48.0169ZM1042.09 -51.1073L1088.48 -51.1073V-97.4633H1042.09V-51.1073ZM1091.57 -97.4633V-51.1073H1137.96V-97.4633L1091.57 -97.4633ZM1137.96 -100.554L1091.57 -100.554V-146.91H1137.96V-100.554ZM1042.09 -100.554H1088.48V-146.91H1042.09V-100.554ZM1039 -100.554V-146.91H992.618V-100.554H1039ZM989.526 -100.554V-146.91H943.142V-100.554H989.526ZM989.526 -97.4633H943.142V-51.1073H989.526V-97.4633ZM992.618 -97.4633V-51.1073H1039V-97.4633H992.618ZM992.618 -48.0169H1039V-1.66101H992.618V-48.0169ZM989.526 -48.0169V-1.66101H943.142V-48.0169H989.526ZM989.526 1.42938H943.142V47.7853H989.526V1.42938ZM992.618 1.42938V47.7853H1039V1.42938H992.618ZM992.618 50.8757H1039V97.2316H992.618V50.8757ZM989.526 50.8757V97.2316H943.142V50.8757H989.526ZM989.526 100.322H943.142V146.678H989.526V100.322ZM992.618 100.322V146.678H1039V100.322H992.618ZM992.618 149.768H1039V196.124H992.618V149.768ZM989.526 149.768V196.124H943.142V149.768H989.526ZM989.526 199.215H943.142V245.571H989.526V199.215ZM992.618 199.215V245.571H1039V199.215H992.618ZM992.618 248.661H1039V295.017H992.618V248.661ZM989.526 248.661V295.017H943.142V248.661H989.526ZM989.526 298.107H943.142V344.463H989.526V298.107ZM992.618 298.107V344.463H1039V298.107H992.618ZM992.618 347.554H1039V393.91H992.618V347.554ZM989.526 393.91H943.142V347.554H989.526V393.91ZM940.05 393.91L893.666 393.91V347.554H940.05V393.91ZM844.19 393.91H890.574V347.554H844.19V393.91ZM844.19 344.463H890.574V298.107H844.19V344.463ZM893.666 298.107V344.463H940.05V298.107H893.666ZM940.05 295.017H893.666V248.661H940.05V295.017ZM890.574 248.661V295.017H844.19V248.661H890.574ZM844.19 245.571H890.574V199.215H844.19V245.571ZM893.666 199.215V245.571H940.05V199.215H893.666ZM940.05 196.124H893.666V149.768H940.05V196.124ZM890.574 149.768V196.124H844.19V149.768H890.574ZM844.19 146.678H890.574V100.322H844.19V146.678ZM893.666 100.322V146.678H940.05V100.322H893.666ZM940.05 97.2317H893.666V50.8757H940.05V97.2317ZM890.574 50.8757V97.2317H844.19V50.8757H890.574ZM844.19 47.7853H890.574V1.42938H844.19V47.7853ZM893.666 1.42938V47.7853H940.05V1.42938H893.666ZM940.05 -1.66101H893.666V-48.0169H940.05V-1.66101ZM890.574 -48.0169V-1.66101H844.19V-48.0169H890.574ZM844.19 -51.1073H890.574V-97.4633H844.19V-51.1073ZM893.666 -97.4633V-51.1073H940.05V-97.4633H893.666ZM940.05 -100.554H893.666V-146.91H940.05V-100.554ZM890.574 -146.91V-100.554H844.19V-146.91H890.574ZM841.097 -100.554V-146.91H794.713V-100.554H841.097ZM791.621 -100.554V-146.91H745.237V-100.554L791.621 -100.554ZM791.621 -97.4633L745.237 -97.4633V-51.1073H791.621V-97.4633ZM794.713 -97.4633V-51.1073L841.097 -51.1073V-97.4633H794.713ZM794.713 -48.0169L841.097 -48.0169V-1.66101H794.713V-48.0169ZM791.621 -48.0169V-1.66101H745.237V-48.0169H791.621ZM791.621 1.42938H745.237V47.7853H791.621V1.42938ZM794.713 1.42938V47.7853H841.097V1.42938H794.713ZM794.713 50.8757H841.097V97.2317H794.713V50.8757ZM791.621 50.8757V97.2317H745.237V50.8757H791.621ZM791.621 100.322H745.237V146.678H791.621V100.322ZM794.713 100.322V146.678H841.097V100.322H794.713ZM794.713 149.768H841.097V196.124H794.713V149.768ZM791.621 149.768V196.124H745.237V149.768H791.621ZM791.621 199.215H745.237V245.571H791.621V199.215ZM794.713 199.215V245.571H841.097V199.215H794.713ZM794.713 248.661H841.097V295.017H794.713V248.661ZM791.621 248.661V295.017H745.237V248.661H791.621ZM791.621 298.107H745.237V344.463H791.621V298.107ZM794.713 298.107V344.463H841.097V298.107H794.713ZM794.713 347.554H841.097V393.91H794.713V347.554ZM791.621 347.554V393.91H745.237V347.554H791.621ZM742.145 393.91H695.761V347.554H742.145V393.91ZM646.284 393.91H692.668V347.554H646.284V393.91ZM646.284 344.463H692.668V298.107H646.284V344.463ZM695.761 298.107V344.463H742.145V298.107H695.761ZM742.145 295.017H695.761V248.661H742.145V295.017ZM692.668 248.661V295.017H646.284V248.661H692.668ZM646.284 245.571H692.668V199.215H646.284V245.571ZM695.761 199.215V245.571H742.145V199.215H695.761ZM742.145 196.124H695.761V149.768H742.145V196.124ZM692.668 149.768V196.124H646.284V149.768H692.668ZM646.284 146.678H692.668V100.322H646.284V146.678ZM695.761 100.322V146.678H742.145V100.322L695.761 100.322ZM742.145 97.2317L695.761 97.2317V50.8757L742.145 50.8757V97.2317ZM692.668 50.8757V97.2317H646.284V50.8757H692.668ZM646.284 47.7853H692.668V1.4294H646.284V47.7853ZM695.761 1.4294V47.7853L742.145 47.7853V1.4294L695.761 1.4294ZM742.145 -1.661L695.761 -1.661V-48.0169H742.145V-1.661ZM692.668 -48.0169V-1.661H646.284V-48.0169H692.668ZM646.284 -51.1073H692.668V-97.4633H646.284V-51.1073ZM695.761 -97.4633V-51.1073H742.145V-97.4633H695.761ZM742.145 -100.554H695.761V-146.91H742.145V-100.554ZM692.668 -146.91V-100.554H646.284V-146.91L692.668 -146.91ZM643.192 -100.554V-146.91H596.808V-100.554L643.192 -100.554ZM593.716 -100.554V-146.91H547.332V-100.554H593.716ZM593.716 -97.4633H547.332V-51.1073L593.716 -51.1073V-97.4633ZM596.808 -97.4633V-51.1073H643.192V-97.4633L596.808 -97.4633ZM596.808 -48.0169H643.192V-1.661H596.808V-48.0169ZM593.716 -48.0169V-1.661H547.332V-48.0169L593.716 -48.0169ZM593.716 1.4294H547.332V47.7853H593.716V1.4294ZM596.808 1.4294V47.7853H643.192V1.4294H596.808ZM596.808 50.8757H643.192V97.2317H596.808V50.8757ZM593.716 50.8757V97.2317H547.332V50.8757H593.716ZM593.716 100.322H547.332V146.678H593.716V100.322ZM596.808 100.322V146.678H643.192V100.322H596.808ZM596.808 149.768H643.192V196.124H596.808V149.768ZM593.716 149.768V196.124H547.332V149.768H593.716ZM593.716 199.215H547.332V245.571H593.716V199.215ZM596.808 199.215V245.571H643.192V199.215H596.808ZM596.808 248.661H643.192V295.017H596.808V248.661ZM593.716 248.661V295.017H547.332V248.661H593.716ZM593.716 298.107H547.332V344.463H593.716V298.107ZM596.808 298.107V344.463H643.192V298.107H596.808ZM596.808 347.554H643.192V393.91H596.808V347.554ZM593.716 347.554V393.91H547.332V347.554H593.716ZM544.239 393.91H497.855V347.554H544.239V393.91ZM448.379 393.91H494.763V347.554L448.379 347.554V393.91ZM448.379 344.463L494.763 344.463L494.763 298.107L448.379 298.107L448.379 344.463ZM497.855 298.107L497.855 344.463H544.239V298.107H497.855ZM544.239 295.017H497.855V248.661H544.239V295.017ZM494.763 248.661V295.017L448.379 295.017V248.661L494.763 248.661ZM448.379 245.571L494.763 245.571V199.215L448.379 199.215V245.571ZM497.855 199.215V245.571H544.239V199.215H497.855ZM544.239 196.124H497.855V149.768H544.239V196.124ZM494.763 149.768V196.124L448.379 196.124V149.768L494.763 149.768ZM448.379 146.678L494.763 146.678V100.322H448.379V146.678ZM497.855 100.322V146.678H544.239V100.322H497.855ZM544.239 97.2317H497.855V50.8757H544.239V97.2317ZM494.763 50.8757V97.2317H448.379V50.8757H494.763ZM448.379 47.7853H494.763V1.42941H448.379V47.7853ZM497.855 1.42941V47.7853H544.239V1.42941H497.855ZM544.239 -1.66098H497.855V-48.0169H544.239V-1.66098ZM494.763 -48.0169V-1.66098H448.379V-48.0169H494.763ZM448.379 -51.1073H494.763V-97.4633H448.379V-51.1073ZM497.855 -97.4633V-51.1073H544.239V-97.4633H497.855ZM544.239 -100.554H497.855V-146.91H544.239V-100.554ZM494.763 -146.91V-100.554H448.379V-146.91H494.763ZM445.287 -100.554V-146.91H398.903V-100.554H445.287ZM395.81 -100.554V-146.91H349.426V-100.554H395.81ZM395.81 -97.4632H349.426V-51.1073H395.81V-97.4632ZM398.903 -97.4633V-51.1073H445.287V-97.4633H398.903ZM398.903 -48.0169H445.287V-1.66098H398.903V-48.0169ZM395.81 -48.0169V-1.66098H349.426V-48.0169H395.81ZM395.81 1.42941H349.426V47.7853H395.81V1.42941ZM398.903 1.42941V47.7853H445.287V1.42941H398.903ZM398.903 50.8757H445.287V97.2317H398.903V50.8757ZM395.81 50.8757V97.2317H349.426V50.8757H395.81ZM395.81 100.322H349.426V146.678H395.81V100.322ZM398.903 100.322V146.678H445.287V100.322H398.903ZM398.903 149.768H445.287V196.124H398.903V149.768ZM395.81 149.768V196.124H349.426V149.768H395.81ZM395.81 199.215H349.426V245.571H395.81V199.215ZM398.903 199.215V245.571H445.287V199.215H398.903ZM398.903 248.661H445.287V295.017H398.903V248.661ZM395.81 248.661V295.017H349.426V248.661H395.81ZM395.81 298.107H349.426L349.426 344.463H395.81L395.81 298.107ZM398.903 298.107L398.903 344.463H445.287L445.287 298.107H398.903ZM398.903 347.554H445.287V393.91H398.903V347.554ZM395.81 347.554V393.91H349.426V347.554H395.81ZM346.334 393.91H299.95V347.554H346.334V393.91ZM250.474 393.91H296.858V347.554H250.474V393.91ZM250.474 344.463H296.858L296.858 298.107H250.474V344.463ZM299.95 298.107L299.95 344.463H346.334L346.334 298.107H299.95ZM346.334 295.017H299.95V248.661H346.334V295.017ZM296.858 248.661V295.017H250.474V248.661H296.858ZM250.474 245.571H296.858V199.215H250.474V245.571ZM299.95 199.215V245.571H346.334V199.215H299.95ZM346.334 196.124H299.95V149.768H346.334V196.124ZM296.858 149.768V196.124H250.474V149.768H296.858ZM250.474 146.678H296.858V100.322H250.474V146.678ZM299.95 100.322V146.678H346.334V100.322H299.95ZM346.334 97.2317H299.95V50.8757H346.334V97.2317ZM296.858 50.8757V97.2317H250.474L250.474 50.8757H296.858ZM250.474 47.7853H296.858V1.42943H250.474V47.7853ZM299.95 1.42943V47.7853H346.334V1.42943H299.95ZM346.334 -1.66096H299.95V-48.0169H346.334V-1.66096ZM296.858 -48.0169V-1.66096H250.474V-48.0169H296.858ZM250.474 -51.1073H296.858V-97.4632L250.474 -97.4632V-51.1073ZM299.95 -97.4632V-51.1073H346.334V-97.4632H299.95ZM346.334 -100.554H299.95V-146.91H346.334V-100.554ZM296.858 -146.91V-100.554L250.474 -100.554V-146.91H296.858ZM247.382 -100.554V-146.91L200.998 -146.91V-100.554H247.382ZM197.905 -100.554V-146.91H151.521V-100.554L197.905 -100.554ZM197.905 -97.4632L151.521 -97.4632V-51.1073H197.905V-97.4632ZM200.998 -97.4632V-51.1073H247.382V-97.4632H200.998ZM200.998 -48.0169H247.382V-1.66096L200.998 -1.66096V-48.0169ZM197.905 -48.0169V-1.66096H151.521V-48.0169H197.905ZM197.905 1.42943H151.521V47.7853H197.905V1.42943ZM200.998 1.42943V47.7853L247.382 47.7853V1.42943L200.998 1.42943ZM200.998 50.8757L247.382 50.8757L247.382 97.2317L200.998 97.2317L200.998 50.8757ZM197.905 50.8757L197.905 97.2317H151.521L151.521 50.8757H197.905ZM197.905 100.322H151.521V146.678H197.905V100.322ZM200.998 100.322V146.678H247.382V100.322L200.998 100.322ZM200.998 149.768H247.382V196.124H200.998V149.768ZM197.905 149.768V196.124H151.521V149.768H197.905ZM197.905 199.215H151.521V245.571H197.905V199.215ZM200.998 199.215V245.571H247.382V199.215H200.998ZM200.998 248.661H247.382V295.017H200.998V248.661ZM197.905 248.661V295.017H151.521V248.661H197.905ZM197.905 298.107H151.521V344.463H197.905V298.107ZM200.998 298.107V344.463H247.382V298.107H200.998ZM200.998 347.554H247.382V393.91H200.998V347.554ZM197.905 347.554V393.91H151.521V347.554H197.905ZM148.429 393.91H102.045V347.554H148.429V393.91ZM52.5686 393.91H98.9526V347.554H52.5686L52.5686 393.91ZM52.5686 344.463H98.9526V298.107H52.5686V344.463ZM102.045 298.107V344.463H148.429V298.107H102.045ZM148.429 295.017H102.045V248.661H148.429V295.017ZM98.9526 248.661V295.017H52.5686L52.5686 248.661H98.9526ZM52.5686 245.571H98.9526V199.215H52.5686V245.571ZM102.045 199.215V245.571H148.429V199.215H102.045ZM148.429 196.124H102.045V149.768H148.429V196.124ZM98.9526 149.768V196.124H52.5686V149.768H98.9526ZM52.5686 146.678H98.9526V100.322H52.5686L52.5686 146.678ZM102.045 100.322V146.678H148.429V100.322H102.045ZM148.429 97.2317H102.045V50.8757H148.429L148.429 97.2317ZM98.9526 50.8757V97.2317H52.5686V50.8757H98.9526ZM52.5686 47.7853H98.9526V1.42943H52.5686L52.5686 47.7853ZM102.045 1.42943V47.7853H148.429V1.42943H102.045ZM148.429 -1.66096H102.045L102.045 -48.0169L148.429 -48.0169V-1.66096ZM98.9526 -48.0169L98.9526 -1.66096H52.5686V-48.0169H98.9526ZM52.5686 -51.1073H98.9526V-97.4632H52.5686L52.5686 -51.1073ZM102.045 -97.4632V-51.1073L148.429 -51.1073V-97.4632H102.045ZM148.429 -100.554H102.045V-146.91H148.429V-100.554ZM98.9526 -146.91V-100.554H52.5686V-146.91H98.9526Z" fill="url(#paint0_radial_0_21)"/>
<defs>
<radialGradient id="paint0_radial_0_21" cx="0" cy="0" r="1" gradientUnits="userSpaceOnUse" gradientTransform="translate(618.454 -150) rotate(89.8381) scale(547.002 586.817)">
<stop stop-color="white"/>
<stop offset="1" stop-color="white" stop-opacity="0"/>
</radialGradient>
</defs>
</svg>
